# xmcd
#
# Track frame offsets: 
#        150
#        24461
#        40651
#        60988
#
# Disc length: 1306 seconds
#
# Revision: 1
# Processed by: cddbd v1.5.2PL0 Copyright (c) Steve Scherf et al.
# Submitted via: ExactAudioCopyFreeDBPlugin 1.0
#
DISCID=24051804
DTITLE=Gary Clark Jr. - The Bright Lights EP
DYEAR=2011
DGENRE=Blues
TTITLE0=Bright Lights
TTITLE1=Don't Owe You A Thang
TTITLE2=Things Are Changin' (live - solo acoustic)
TTITLE3=When My Train Pulls In (live - solo acoustic)
EXTD=
EXTT0=
EXTT1=
EXTT2=
EXTT3=
PLAYORDER=
